<svg width="860" height="201" viewBox="0 0 860 201" fill="none" xmlns="http://www.w3.org/2000/svg">
<path d="M855.815 28.7802C855.404 25.8047 854.583 23.0858 853.557 20.572C853.455 20.3155 853.352 20.0077 853.25 19.7512C852.788 18.7251 852.224 17.7504 851.711 16.7757C851.505 16.4165 851.351 16.1087 851.095 15.7496C847.042 9.49081 840.834 5.43798 833.447 4.51455C832.524 4.30934 831.6 4.05283 830.626 3.89893C807.386 0.769526 782.864 0.205207 761.933 0C759.778 0 180.12 1.17535e-06 177.914 0.0513029C158.779 0.25651 133.743 0.872128 110.299 4.05283C107.272 4.46325 104.553 5.28407 101.988 6.36141C101.782 6.46401 101.526 6.51531 101.321 6.61792C100.192 7.13093 99.1148 7.69525 98.0888 8.31087C97.8323 8.46478 97.5758 8.56738 97.3705 8.72129C91.0091 12.7741 86.9563 19.0329 86.0842 26.4717C85.879 27.3951 85.6225 28.3185 85.4686 29.2933C85.0068 32.7818 84.5964 36.3216 84.2373 39.8614C74.0796 39.8614 68.026 39.8614 67.8208 39.8614C56.4831 39.964 41.6569 40.3231 27.8055 42.2213C26.0099 42.4778 24.4195 42.9395 22.8805 43.5551C22.7266 43.6064 22.624 43.6577 22.4701 43.709C21.8032 44.0168 21.1362 44.376 20.5206 44.7351C20.3667 44.8377 20.2128 44.889 20.1102 44.9916C16.3652 47.4028 13.954 51.0965 13.441 55.5084C13.3384 56.0727 13.1845 56.5858 13.0819 57.1501C11.235 70.8989 10.8759 85.4173 10.7733 97.8323C10.7733 99.1149 10.7733 100.397 10.7733 101.68C10.8759 113.018 11.235 127.844 13.1332 141.695C13.3384 143.286 13.7488 144.722 14.3131 146.107C14.4157 146.466 14.5696 146.825 14.7235 147.185C14.8261 147.441 14.9287 147.646 15.0313 147.903C15.2879 148.467 15.5957 148.98 15.9548 149.493C18.3147 153.084 21.8032 155.444 26.0099 156.06C26.6768 156.214 27.3438 156.368 28.062 156.47C41.9134 158.317 56.7396 158.676 68.0773 158.779C68.2825 158.779 74.1309 158.779 84.0321 158.779C84.4425 163.242 84.9555 167.757 85.5199 172.168C85.879 174.836 86.5972 177.299 87.4693 179.607C87.6745 180.223 87.931 180.838 88.1876 181.454C88.3928 181.864 88.5467 182.275 88.7519 182.685C89.2136 183.609 89.7266 184.481 90.3422 185.353C94.2924 191.407 100.243 195.408 107.323 196.434C108.452 196.691 109.58 196.947 110.76 197.101C134.103 200.23 159.189 200.846 178.376 201C180.582 201 760.24 201 762.394 201C783.223 200.795 807.642 200.128 831.087 196.998C833.652 196.639 836.012 195.972 838.269 195.152C839.039 194.895 839.757 194.639 840.476 194.279C840.783 194.126 841.142 193.972 841.45 193.818C842.425 193.305 843.4 192.74 844.323 192.125C850.325 188.175 854.224 182.275 855.25 175.247C855.507 174.118 855.763 172.989 855.917 171.758C859.047 148.416 859.662 123.329 859.816 104.142C859.816 101.936 859.816 99.7305 859.816 97.6271C859.611 76.6447 858.995 52.2251 855.815 28.7802Z" fill="#C1172B"/>
<path d="M114.813 52.8924C111.017 52.8924 107.734 55.3036 106.297 58.7921L84.6992 97.217L95.2161 116.506L105.271 99.2178L105.015 137.181C104.963 142.414 109.119 146.723 114.146 146.723C119.174 146.723 123.278 142.414 123.329 137.181L123.894 62.3832C123.894 57.1504 119.841 52.8924 114.813 52.8924Z" fill="white"/>
<path d="M80.492 132.769C80.3894 132.564 80.2868 132.359 80.1842 132.153L39.2455 57.8687C39.1429 57.7147 39.0916 57.5608 38.989 57.4069C38.9377 57.3556 38.9377 57.3043 38.8864 57.253C37.296 54.6367 34.4744 52.8924 31.2424 52.8924C26.2149 52.8924 22.1107 57.1504 22.0594 62.4345L21.4951 137.54C21.5977 142.67 25.6505 146.774 30.5755 146.774C35.5005 146.774 39.6046 142.67 39.7585 137.54L40.015 98.1405L64.4346 141.901C64.4346 141.952 64.4859 142.003 64.4859 142.055L64.6398 142.311C66.2302 144.979 69.0518 146.723 72.3864 146.723C77.4139 146.723 81.5181 142.465 81.5694 137.232C81.5694 135.693 81.2616 134.257 80.6459 132.923L80.492 132.769Z" fill="white"/>
<path d="M160.472 41.5032C160.164 39.092 159.497 36.886 158.625 34.834C158.522 34.6288 158.471 34.3723 158.368 34.167C158.009 33.2949 157.547 32.5254 157.086 31.7559C156.932 31.4994 156.778 31.1915 156.624 30.935C153.341 25.8049 148.262 22.5216 142.26 21.8033C141.49 21.6494 140.772 21.4442 139.951 21.2903C120.969 18.7765 101.013 18.2635 83.9296 18.1096C82.1853 18.1096 80.3897 18.1096 78.5942 18.1096C62.9985 18.2635 42.5804 18.7765 23.4449 21.3416C20.9824 21.6494 18.7764 22.3677 16.673 23.1885C16.5191 23.2398 16.3139 23.3424 16.16 23.3937C15.2366 23.8041 14.3645 24.2658 13.4923 24.7788C13.2871 24.8814 13.0819 24.984 12.8767 25.138C7.69526 28.4726 4.36064 33.5514 3.64241 39.605C3.48851 40.3746 3.2833 41.0928 3.1807 41.9136C0.666916 60.8952 0.153905 80.8516 0 97.935C0 99.6793 0 101.475 0 103.27C0.153905 118.866 0.666927 139.284 3.23201 158.42C3.53982 160.574 4.10415 162.575 4.82237 164.473C4.97628 164.986 5.18147 165.499 5.38667 165.961C5.54058 166.269 5.69448 166.628 5.84839 166.936C6.2075 167.705 6.66922 168.424 7.13093 169.09C10.3629 174.015 15.1853 177.299 20.9824 178.12C21.9058 178.325 22.8292 178.53 23.804 178.633C42.8369 181.198 63.255 181.659 78.9533 181.813C80.7488 181.813 82.5444 181.813 84.2887 181.813C101.27 181.659 121.226 181.146 140.31 178.53C142.413 178.222 144.312 177.709 146.159 176.991C146.774 176.786 147.39 176.529 147.954 176.273C148.211 176.17 148.518 176.016 148.775 175.914C149.596 175.503 150.365 175.041 151.083 174.528C155.957 171.296 159.138 166.525 160.01 160.78C160.215 159.856 160.42 158.933 160.523 157.958C163.088 138.925 163.55 118.507 163.704 102.809C163.704 101.013 163.704 99.2176 163.704 97.4733C163.601 80.5438 163.088 60.5874 160.472 41.5032ZM146.825 137.335C146.774 144.107 141.439 149.545 134.975 149.596C130.46 149.596 126.561 146.877 124.561 142.927C122.56 146.877 118.61 149.596 114.095 149.596C109.529 149.596 105.579 146.877 103.681 142.978C101.68 146.877 97.7297 149.596 93.1639 149.596C88.6493 149.596 84.6991 146.877 82.8009 142.978C80.8001 146.877 76.7986 149.596 72.2841 149.596C67.7182 149.596 63.768 146.877 61.8698 142.978C59.8691 146.928 55.9188 149.647 51.353 149.647C46.8384 149.647 42.8882 146.928 40.9901 142.978C39.0406 146.928 35.0391 149.647 30.4732 149.647C24.0092 149.647 18.7764 144.158 18.8277 137.437L19.3921 62.6395C19.4434 55.919 24.7787 50.3784 31.2427 50.3784C35.8086 50.3784 39.7588 53.0974 41.657 56.9963C43.6577 53.0974 47.608 50.3784 52.1225 50.3784C56.6884 50.3784 60.6386 53.0974 62.5368 56.9963H62.5881L83.2113 94.6004L104.296 57.0476C106.297 53.0461 110.247 50.2758 114.864 50.2758C119.379 50.2758 123.278 52.9948 125.227 56.945C127.279 52.9948 131.23 50.2758 135.744 50.2758C142.208 50.2758 147.441 55.7651 147.39 62.5369L146.825 137.335Z" fill="white"/>
<path d="M819.544 43.0425C816.517 39.6053 812.003 37.7071 806.924 37.7071C798.305 37.7071 791.226 42.6834 787.583 51.4047L759.726 115.327L748.389 52.1742C746.798 43.5555 739.924 37.5532 731.664 37.5532H731.254C722.225 37.7584 714.324 45.3511 712.991 55.1497L693.701 160.882H719.506L730.792 99.8335L741.566 160.882H766.96L793.432 100.039L787.788 160.882H814.927L823.597 56.227C823.905 50.9943 822.52 46.4284 819.544 43.0425Z" fill="white"/>
<path d="M670.769 37.7071C662.151 37.7071 655.071 42.6834 651.429 51.4047L623.572 115.327L612.234 52.1742C610.644 43.5555 603.769 37.5532 595.51 37.5532H595.099C586.07 37.7584 578.17 45.3511 576.836 55.1497L557.547 160.882H583.351L594.638 99.8335L605.411 160.882H630.805L657.277 100.039L651.634 160.882H678.772L687.442 56.227C687.802 50.9943 686.416 46.4797 683.39 43.0938C680.363 39.6053 675.848 37.7071 670.769 37.7071Z" fill="white"/>
<path d="M533.332 98.0376L533.948 98.2942H540.052L543.182 75.9779L540.514 75.1571C532.255 72.592 525.637 70.7965 515.12 70.6425H514.658C499.934 70.6425 482.954 78.543 480.542 95.7804C478.901 106.502 482.902 116.301 490.7 120.713C494.907 123.124 499.268 124.766 503.885 126.459C505.834 127.177 507.784 127.895 509.836 128.716L510.349 128.921C512.247 129.691 516.761 131.384 516.505 132.974C516.351 134.359 515.838 138.515 503.679 138.874C496.959 138.874 487.879 137.13 482.543 134.77L481.928 134.513H475.874L472.796 157.548L475.361 158.42C484.185 161.293 492.137 162.626 500.396 162.626C518.506 162.626 538.872 155.188 541.797 134.359C543.644 121.996 539.796 112.607 530.972 107.888C526.663 105.425 521.584 103.63 516.659 101.885C514.607 101.167 512.606 100.449 510.605 99.6793C508.091 98.8072 506.296 97.5759 505.732 96.8577C506.552 95.7291 510.4 94.6004 515.017 94.6004C520.814 94.5491 528.356 95.9856 533.332 98.0376Z" fill="white"/>
<path d="M429.087 70.6425C419.699 70.6425 410.926 72.7972 403.436 74.8493L401.333 75.4136L398.049 99.4228H404.667L405.283 99.115C411.388 96.3447 419.596 94.5491 426.214 94.5491C429.702 94.5491 436.115 95.9343 438.885 98.8585C439.039 99.0124 439.193 99.2176 439.296 99.3715L415.441 102.757C402.513 104.502 387.584 114.454 385.378 132.256C384.454 140.669 386.712 148.365 391.688 153.905C396.818 159.6 404.616 162.78 413.594 162.78C420.058 162.78 426.829 160.78 432.627 157.291L432.165 160.882H457.713L465.921 101.988C466.845 93.6257 464.947 86.7 460.227 81.3646C452.378 72.4894 438.937 70.6425 429.087 70.6425ZM436.782 121.79L435.089 134.205C429.497 137.13 424.213 138.669 419.699 138.669C416.518 138.669 414.107 137.899 412.927 136.565C412.003 135.539 411.747 133.949 412.003 131.948C412.619 127.844 415.338 125.33 420.314 124.355C424.111 123.586 427.907 123.073 431.601 122.56C433.294 122.303 435.038 122.098 436.782 121.79Z" fill="white"/>
<path d="M340.899 96.088H351.057L343.156 146.774C341.72 156.624 337.975 159.805 327.663 159.805H324.842L321.405 184.019H325.15C351.775 184.019 365.934 171.45 369.679 144.466L380.812 72.3867H344.285L340.899 96.088Z" fill="white"/>
<path d="M360.548 39.6048L356.495 60.7411H383.07L387.123 39.6048H360.548Z" fill="white"/>
<path d="M324.175 82.288C317.557 74.6954 308.066 70.6425 296.78 70.6425C271.129 70.6425 252.199 87.9825 248.505 114.711C246.401 129.229 249.428 142.054 257.021 150.776C263.69 158.471 273.284 162.575 284.775 162.575C310.169 162.575 329.049 145.338 332.896 118.61C334.948 103.989 331.819 91.0606 324.175 82.288ZM306.014 116.147C304.116 129.639 296.677 138.361 287.135 138.361C283.544 138.361 280.722 137.13 278.619 134.77C275.438 131.076 274.258 124.817 275.387 117.019C277.183 103.527 284.519 94.8056 294.112 94.8056C297.652 94.8056 300.525 95.9856 302.577 98.3968C305.86 102.09 307.04 108.401 306.014 116.147Z" fill="white"/>
<path d="M231.37 135.283C227.933 136.924 224.291 138.566 220.956 138.566H220.443C217.878 138.566 215.928 138.002 215.005 136.873C214.236 136.001 213.979 134.564 214.287 132.564L227.266 39.8102H200.897L188.482 128.203C186.84 139.695 188.585 148.518 193.664 154.418C198.383 159.856 205.719 162.626 215.569 162.626C222.341 162.626 227.266 161.036 233.525 158.984L235.834 158.214L238.912 134.975H231.935L231.37 135.283Z" fill="white"/>
</svg>
